<svg aria-hidden="true" style="position: absolute; width: 0; height: 0; overflow: hidden;" version="1.1" xmlns="http://www.w3.org/2000/svg" xmlns:xlink="http://www.w3.org/1999/xlink">
<defs>
<symbol id="icon-arrow_1" viewBox="0 0 32 32">
<path d="M16 19.075l10.888-10.797c0.803-0.797 2.106-0.797 2.909 0s0.803 2.088 0 2.885l-12.343 12.24c-0.803 0.797-2.106 0.797-2.909 0l-12.343-12.24c-0.803-0.797-0.803-2.088 0-2.885s2.106-0.797 2.909 0l10.888 10.797z"></path>
</symbol>
<symbol id="icon-arrow_2" viewBox="0 0 32 32">
<path d="M18.070 24.931l11.733-14.488c0.929-1.147 0.755-2.832-0.388-3.764-0.475-0.388-1.069-0.599-1.682-0.599h-23.466c-1.473 0-2.667 1.198-2.667 2.676 0 0.615 0.211 1.21 0.597 1.687l11.733 14.488c0.929 1.147 2.609 1.321 3.752 0.389 0.142-0.116 0.272-0.247 0.388-0.389z"></path>
</symbol>
<symbol id="icon-arrow_3" viewBox="0 0 32 32">
<path d="M11.59 25.979l9.057-10.027-9.057-10.027-0.237 0.215 8.863 9.813-8.863 9.813z"></path>
</symbol>
<symbol id="icon-arrow_4" viewBox="0 0 32 32">
<path d="M20.41 25.979l-9.057-10.027 9.057-10.027 0.237 0.215-8.863 9.813 8.863 9.813z"></path>
</symbol>
<symbol id="icon-arrow_5" viewBox="0 0 32 32">
<path d="M16.32 25.92l14.4-19.84h-28.8z"></path>
</symbol>
<symbol id="icon-check" viewBox="0 0 32 32">
<path d="M15.984 1.6c2.611 0 5.036 0.658 7.274 1.973 2.172 1.271 3.895 2.992 5.168 5.162 1.317 2.236 1.975 4.658 1.975 7.266s-0.658 5.030-1.975 7.266c-1.273 2.17-2.995 3.89-5.168 5.162-2.238 1.315-4.663 1.973-7.274 1.973s-5.036-0.658-7.274-1.973c-2.172-1.271-3.884-2.992-5.135-5.162-1.317-2.236-1.975-4.658-1.975-7.266s0.658-5.030 1.975-7.266c1.251-2.17 2.962-3.89 5.135-5.162 2.238-1.315 4.663-1.973 7.274-1.973zM22.018 8.504c-0.091 0-0.165 0.037-0.219 0.11v0l-8.311 8.822c-0.073 0.055-0.151 0.082-0.233 0.082s-0.151-0.027-0.206-0.082v0l-2.962-2.959c-0.073-0.055-0.151-0.082-0.233-0.082s-0.151 0.027-0.206 0.082v0l-1.81 1.781c-0.055 0.073-0.082 0.151-0.082 0.233s0.027 0.16 0.082 0.233v0l5.355 5.321c0.045 0.032 0.098 0.049 0.158 0.049 0.091 0 0.165-0.037 0.219-0.11v0l10.56-11.178c0.055-0.073 0.082-0.151 0.082-0.233s-0.037-0.151-0.11-0.205v0l-1.865-1.781c-0.055-0.055-0.128-0.082-0.219-0.082z"></path>
</symbol>
<symbol id="icon-ic_bag" viewBox="0 0 32 32">
<path d="M15.84 1.92c1.926 0 3.595 1.378 3.991 3.247l4.289 1.009c0.124 0.029 0.231 0.106 0.299 0.216s0.089 0.24 0.059 0.364v0l-0.335 1.438 0.817 0c0.153 0 0.296 0.073 0.386 0.196l0.025 0.038 1.449 2.429c0.034 0.062 0.055 0.133 0.059 0.208v0l0.96 18.826c0.007 0.132-0.041 0.261-0.131 0.357s-0.217 0.15-0.348 0.15v0h-23.040c-0.132 0-0.257-0.054-0.348-0.15s-0.138-0.225-0.131-0.357v0l0.96-18.826c0-0.005 0.001-0.010 0.001-0.015 0-0.007 0.001-0.015 0.002-0.023 0.001-0.011 0.003-0.021 0.005-0.031 0.001-0.006 0.002-0.011 0.003-0.017 0.007-0.031 0.017-0.061 0.030-0.089 0.007-0.017 0.016-0.034 0.026-0.050l-0.018 0.033c0.004-0.008 0.008-0.017 0.013-0.025l0.005-0.009 1.44-2.414c0.087-0.146 0.243-0.234 0.412-0.234v0l0.344-0-0.389-3.314c-0.029-0.249 0.136-0.476 0.375-0.528l0.046-0.008 5.393-0.641c0.014-0.034 0.033-0.067 0.055-0.098 0.766-1.055 1.999-1.685 3.296-1.685zM25.944 11.574h-20.208l-0.911 17.86h22.029l-0.911-17.86zM19.44 12.54c0.794 0 1.44 0.65 1.44 1.448 0 0.629-0.401 1.166-0.96 1.365l0 1.772c0 2.262-1.83 4.103-4.080 4.103s-4.080-1.841-4.080-4.103v0l-0-1.772c-0.559-0.199-0.96-0.736-0.96-1.365 0-0.799 0.646-1.448 1.44-1.448s1.44 0.65 1.44 1.448c0 0.629-0.401 1.166-0.96 1.365l-0 1.772c0 1.73 1.4 3.138 3.12 3.138s3.12-1.408 3.12-3.138v0l-0-1.772c-0.559-0.199-0.96-0.736-0.96-1.365 0-0.799 0.646-1.448 1.44-1.448zM12.24 13.505c-0.265 0-0.48 0.216-0.48 0.483 0 0.088 0.024 0.17 0.065 0.242 0.083-0.144 0.238-0.242 0.415-0.242s0.333 0.097 0.416 0.241c0.041-0.071 0.064-0.153 0.064-0.241 0-0.266-0.215-0.483-0.48-0.483zM19.44 13.505c-0.265 0-0.48 0.216-0.48 0.483 0 0.075 0.017 0.146 0.047 0.209 0.086-0.127 0.231-0.21 0.395-0.21v0h0.037c0.177 0 0.332 0.097 0.415 0.241 0.041-0.071 0.064-0.153 0.064-0.241 0-0.266-0.215-0.483-0.48-0.483zM7.178 9.16l-0.186 0-0.864 1.448 1.22-0-0.17-1.448zM24.688 9.16l-0.769-0-0.337 1.448 1.97 0-0.864-1.448zM14.759 4.406l-7.075 0.841 0.63 5.362h2.336l-0.38-1.588c-0.058-0.244 0.079-0.489 0.31-0.569l0.044-0.013 4.48-1.084-0.347-2.948zM18.116 7.619l-6.799 1.644 0.322 1.345h7.192l-0.714-2.989zM17.826 5.687l-0.249 1.069 0.781-0.189c0.109-0.026 0.222-0.013 0.321 0.035l0.042 0.023c0.108 0.067 0.186 0.175 0.216 0.299v0l0.881 3.685h2.778l0.838-3.602-5.608-1.319zM15.84 2.885c-0.689 0-1.354 0.232-1.892 0.644l1.176-0.14c0.127-0.015 0.253 0.021 0.354 0.1s0.165 0.195 0.18 0.322v0l0.389 3.314 0.486-0.118 0.468-2.011c0.025-0.109 0.087-0.205 0.175-0.273l0.039-0.027c0.108-0.067 0.239-0.089 0.363-0.060v0l1.182 0.278c-0.45-1.194-1.607-2.030-2.919-2.030z"></path>
</symbol>
<symbol id="icon-ic_cart" viewBox="0 0 32 32">
<path d="M7.813 3.84c0.716 0 1.332 0.488 1.497 1.187v0l1.168 4.973h18.45c0.158 0 0.307 0.073 0.404 0.197s0.132 0.287 0.093 0.44v0l-1.856 7.435c-0.172 0.687-0.785 1.167-1.492 1.167v0h-13.429l0.482 2.053h12.415c0.848 0 1.538 0.691 1.538 1.54s-0.69 1.54-1.538 1.54v0c0.321 0.429 0.512 0.963 0.512 1.54 0 1.415-1.15 2.567-2.563 2.567s-2.563-1.151-2.563-2.567c0-0.577 0.191-1.111 0.514-1.54v0h-4.41c0.323 0.429 0.514 0.963 0.514 1.54 0 1.415-1.15 2.567-2.563 2.567s-2.563-1.151-2.563-2.567c0-0.577 0.191-1.111 0.514-1.54v0h-1.026c-0.716 0-1.332-0.488-1.497-1.187v0l-3.821-16.266h-1.857c-0.848 0-1.538-0.691-1.538-1.54s0.69-1.54 1.538-1.54v0zM14.987 24.373c-0.848 0-1.537 0.691-1.537 1.54s0.69 1.54 1.537 1.54c0.848 0 1.537-0.691 1.537-1.54s-0.69-1.54-1.537-1.54zM23.495 24.373c-0.848 0-1.538 0.691-1.538 1.54s0.69 1.54 1.538 1.54c0.848 0 1.538-0.691 1.538-1.54s-0.69-1.54-1.538-1.54zM23.495 25.4c0.283 0 0.512 0.23 0.512 0.513s-0.23 0.513-0.512 0.513c-0.283 0-0.512-0.23-0.512-0.513s0.23-0.513 0.512-0.513zM14.987 25.4c0.283 0 0.512 0.23 0.512 0.513s-0.23 0.513-0.512 0.513c-0.283 0-0.512-0.23-0.512-0.513s0.23-0.513 0.512-0.513zM7.813 4.867h-3.075c-0.283 0-0.513 0.23-0.513 0.513s0.23 0.513 0.513 0.513v0h2.669l4.007 17.058c0.055 0.233 0.26 0.396 0.499 0.396v0h13.632c0.283 0 0.512-0.23 0.512-0.513s-0.23-0.513-0.512-0.513v0h-13.226l-4.007-17.058c-0.055-0.233-0.26-0.396-0.499-0.396v0zM18.882 11.027h-3.673l0.384 3.080h1.751c0.283 0 0.512 0.23 0.512 0.513s-0.229 0.513-0.512 0.513v0h-1.623l0.384 3.080h2.776v-1.54c0-0.284 0.229-0.513 0.512-0.513s0.512 0.23 0.512 0.513v0 1.54h2.776l0.384-3.080h-1.623c-0.283 0-0.512-0.23-0.512-0.513s0.229-0.513 0.512-0.513v0h1.751l0.384-3.080h-3.673v1.54c0 0.284-0.229 0.513-0.512 0.513s-0.512-0.23-0.512-0.513v0-1.54zM14.689 15.133h-3.006l0.723 3.080h2.667l-0.384-3.080zM27.246 15.133h-3.145l-0.384 3.080h2.36c0.236 0 0.44-0.16 0.498-0.389v0l0.672-2.691zM19.395 14.107c0.283 0 0.512 0.23 0.512 0.513s-0.23 0.513-0.512 0.513c-0.283 0-0.512-0.23-0.512-0.513s0.23-0.513 0.512-0.513zM28.271 11.027h-3.657l-0.384 3.080h3.273l0.769-3.080zM14.176 11.027h-3.458l0.723 3.080h3.119l-0.384-3.080z"></path>
</symbol>
<symbol id="icon-ic_facebook" viewBox="0 0 32 32">
<path d="M16 1.6c7.953 0 14.4 6.447 14.4 14.4s-6.447 14.4-14.4 14.4c-7.953 0-14.4-6.447-14.4-14.4s6.447-14.4 14.4-14.4zM19.455 8.32h-2.163c-2.598 0-3.512 1.31-3.512 3.512v1.621h-1.619v2.7h1.619v7.834h3.241v-7.834h2.163l0.287-2.7h-2.449l0.004-1.351c0-0.704 0.067-1.081 1.078-1.081h1.352v-2.7z"></path>
</symbol>
<symbol id="icon-ic_hearing" viewBox="0 0 32 32">
<path d="M18.817 6.080c1.842 0.012 3.572 0.709 4.87 1.962 1.303 1.258 2.031 2.94 2.050 4.737 0.025 2.328-1.161 4.477-3.172 5.748-0.813 0.514-1.229 1.448-1.035 2.325 0.070 0.318 0.1 0.645 0.090 0.972-0.032 1.007-0.448 1.962-1.174 2.69-0.722 0.723-1.685 1.156-2.711 1.219-0.087 0.005-0.174 0.008-0.26 0.008-1.103 0-2.165-0.427-2.947-1.192-0.849-0.831-1.201-2.056-1.018-3.543 0.34-2.755 0.028-4.775-1.078-6.971-0.524-1.041-0.645-2.109-0.35-3.089 0.417-1.386 1.303-2.63 2.496-3.504 1.229-0.901 2.694-1.372 4.24-1.362zM18.81 7.232c-1.295-0.006-2.523 0.386-3.551 1.139-0.992 0.727-1.728 1.759-2.074 2.907-0.263 0.875 0.005 1.701 0.276 2.239 1.51 3 1.45 5.541 1.192 7.63-0.14 1.133 0.089 2 0.68 2.578 0.612 0.598 1.461 0.91 2.332 0.858 0.745-0.045 1.443-0.359 1.966-0.883 0.518-0.519 0.816-1.198 0.838-1.912 0.007-0.232-0.014-0.464-0.063-0.688-0.149-0.676-0.076-1.372 0.21-2.015 0.279-0.626 0.741-1.156 1.335-1.532 1.671-1.056 2.656-2.836 2.636-4.762-0.016-1.485-0.619-2.878-1.699-3.92-1.084-1.047-2.532-1.629-4.077-1.639zM9.642 14.073c0.221-0.228 0.586-0.234 0.814-0.013 1.114 1.079 1.728 2.518 1.728 4.051s-0.614 2.971-1.727 4.051c-0.112 0.108-0.257 0.162-0.401 0.162-0.15 0-0.301-0.059-0.414-0.175-0.221-0.228-0.216-0.593 0.013-0.814 0.888-0.861 1.377-2.005 1.377-3.224s-0.489-2.363-1.377-3.223c-0.228-0.221-0.234-0.586-0.013-0.815zM7.958 15.705c0.221-0.228 0.586-0.234 0.815-0.013 0.666 0.645 1.033 1.505 1.033 2.42s-0.367 1.774-1.033 2.42c-0.112 0.108-0.257 0.162-0.401 0.162-0.151 0-0.301-0.059-0.414-0.175-0.221-0.228-0.216-0.593 0.013-0.814 0.44-0.426 0.682-0.992 0.682-1.592s-0.242-1.166-0.682-1.592c-0.228-0.221-0.234-0.586-0.013-0.815zM6.25 16.896c0.226-0.224 0.59-0.223 0.815 0.003 0.628 0.632 0.628 1.659 0 2.291-0.112 0.113-0.261 0.17-0.409 0.17-0.147 0-0.294-0.056-0.406-0.167-0.226-0.224-0.227-0.589-0.003-0.814 0.183-0.184 0.183-0.483 0-0.667-0.224-0.226-0.223-0.59 0.003-0.814zM18.77 8.808c2.29 0 4.153 1.813 4.153 4.042 0 0.318-0.258 0.576-0.576 0.576s-0.576-0.258-0.576-0.576c0-1.593-1.346-2.89-3-2.89-1.424 0-2.619 0.96-2.925 2.243 0.368 0.014 0.733 0.106 1.061 0.273 0.861 0.44 1.399 1.371 1.338 2.316-0.060 0.93-0.7 1.782-1.591 2.12-0.067 0.025-0.136 0.038-0.204 0.038-0.233 0-0.451-0.142-0.539-0.372-0.113-0.297 0.037-0.63 0.335-0.743 0.477-0.181 0.818-0.63 0.85-1.117 0.032-0.493-0.254-0.981-0.712-1.215-0.307-0.157-0.691-0.192-1.026-0.093-0.174 0.051-0.362 0.017-0.508-0.091s-0.231-0.28-0.231-0.461v0-0.007c0-2.229 1.863-4.042 4.152-4.042z"></path>
</symbol>
<symbol id="icon-ic_instagram" viewBox="0 0 32 32">
<path d="M16 1.6c7.953 0 14.4 6.447 14.4 14.4s-6.447 14.4-14.4 14.4c-7.953 0-14.4-6.447-14.4-14.4s6.447-14.4 14.4-14.4zM16.594 8.32h-1.188c-1.551 0.002-1.838 0.013-2.572 0.046-0.818 0.037-1.376 0.167-1.864 0.357-0.505 0.196-0.934 0.459-1.361 0.886s-0.69 0.855-0.886 1.36c-0.19 0.489-0.32 1.047-0.357 1.864-0.034 0.751-0.044 1.034-0.046 2.682v0.97c0.002 1.648 0.012 1.93 0.046 2.681 0.038 0.818 0.167 1.376 0.357 1.864 0.196 0.505 0.459 0.934 0.886 1.36s0.855 0.69 1.36 0.886c0.489 0.19 1.047 0.319 1.864 0.357 0.768 0.035 1.046 0.045 2.796 0.046h0.741c1.75-0.001 2.028-0.011 2.796-0.046 0.818-0.037 1.376-0.167 1.865-0.357 0.505-0.196 0.933-0.459 1.36-0.886s0.69-0.855 0.886-1.36c0.189-0.488 0.318-1.047 0.357-1.864 0.037-0.819 0.046-1.080 0.046-3.166s-0.010-2.348-0.046-3.167c-0.038-0.818-0.168-1.376-0.357-1.864-0.197-0.505-0.459-0.934-0.886-1.361s-0.854-0.69-1.36-0.886c-0.49-0.19-1.048-0.319-1.866-0.357-0.734-0.033-1.020-0.044-2.571-0.046zM15.312 9.702v0.002c0.204-0 0.433 0 0.689 0l0.596 0c1.513 0.002 1.784 0.011 2.507 0.044 0.749 0.034 1.155 0.159 1.426 0.264 0.358 0.139 0.614 0.306 0.883 0.574s0.435 0.525 0.575 0.883c0.105 0.27 0.23 0.677 0.264 1.426 0.034 0.74 0.043 1.007 0.045 2.609l-0 1.089c-0.002 1.512-0.012 1.783-0.044 2.507-0.034 0.749-0.159 1.155-0.264 1.426-0.139 0.358-0.306 0.614-0.575 0.882s-0.524 0.435-0.883 0.574c-0.27 0.106-0.677 0.23-1.426 0.265-0.741 0.034-1.007 0.043-2.618 0.045h-0.972c-1.61-0.001-1.877-0.011-2.618-0.045-0.749-0.035-1.155-0.16-1.426-0.265-0.358-0.139-0.614-0.306-0.883-0.574s-0.435-0.524-0.575-0.883c-0.105-0.27-0.23-0.677-0.264-1.426-0.031-0.689-0.041-0.968-0.044-2.3v-1.608c0.002-1.332 0.012-1.61 0.044-2.299 0.034-0.749 0.159-1.155 0.264-1.426 0.139-0.358 0.306-0.614 0.575-0.883s0.525-0.435 0.883-0.575c0.271-0.106 0.677-0.23 1.426-0.265 0.709-0.032 0.983-0.042 2.414-0.043zM16.001 12.056c-2.178 0-3.944 1.766-3.944 3.944s1.766 3.943 3.944 3.943c2.178 0 3.943-1.765 3.943-3.943 0-2.146-1.713-3.891-3.846-3.943l-0.097-0.001zM16.001 13.44c1.414 0 2.56 1.146 2.56 2.56s-1.146 2.56-2.56 2.56c-1.414 0-2.56-1.146-2.56-2.56s1.146-2.56 2.56-2.56zM20.1 10.979v0c-0.509 0-0.922 0.412-0.922 0.921s0.413 0.922 0.922 0.922 0.922-0.413 0.922-0.922c0-0.509-0.413-0.922-0.922-0.922z"></path>
</symbol>
<symbol id="icon-ic_laptop" viewBox="0 0 32 32">
<path d="M28.284 3.84c0.49 0 0.889 0.397 0.889 0.885v0 15.872l2.457 4.824c0.001 0.002 0.002 0.005 0.003 0.007 0.006 0.013 0.012 0.027 0.017 0.040v0l0.004 0.012c0.005 0.015 0.010 0.031 0.013 0.047v0l0.001 0.005c0.004 0.017 0.006 0.035 0.008 0.053v0l0.001 0.014c0.001 0.009 0.001 0.019 0.001 0.028v0 1.16c0 0.58-0.474 1.051-1.056 1.051v0h-29.248c-0.582 0-1.056-0.472-1.056-1.051v0-1.16c0-0.010 0.001-0.019 0.001-0.029v0l0.001-0.014c0.002-0.018 0.004-0.036 0.008-0.053 0-0.002 0.001-0.003 0.001-0.005 0.004-0.016 0.008-0.032 0.013-0.047v0l0.004-0.012c0.005-0.014 0.011-0.027 0.017-0.040v0l0.003-0.007 2.457-4.824v-15.872c0-0.488 0.399-0.885 0.889-0.885v0zM30.761 26.086h-29.523v0.703c0 0.075 0.062 0.137 0.137 0.137v0h29.248c0.076 0 0.137-0.061 0.137-0.137v0-0.703zM28.432 21.164h-24.864l-2.041 4.007h10.093l0.507-1.829c0.103-0.372 0.446-0.632 0.834-0.632v0h6.079c0.388 0 0.731 0.26 0.834 0.632v0l0.507 1.829h10.093l-2.041-4.007zM18.998 23.625h-5.997l-0.428 1.546h6.854l-0.428-1.546zM28.255 4.755h-24.509v15.495h24.509v-15.495zM26.815 13.264c0.254 0 0.459 0.205 0.459 0.457v0 4.835c0 0.395-0.323 0.717-0.72 0.717v0h-21.109c-0.397 0-0.72-0.322-0.72-0.717v0-4.835c0-0.253 0.206-0.457 0.459-0.457s0.459 0.205 0.459 0.457v0 4.638h20.712v-4.638c0-0.253 0.206-0.457 0.459-0.457zM26.554 5.73c0.397 0 0.72 0.322 0.72 0.717v0 4.835c0 0.253-0.206 0.457-0.459 0.457s-0.459-0.205-0.459-0.457v0-4.638h-20.712v4.638c0 0.253-0.206 0.457-0.459 0.457s-0.459-0.205-0.459-0.457v0-4.835c0-0.396 0.323-0.717 0.72-0.717v0z"></path>
</symbol>
<symbol id="icon-ic_money" viewBox="0 0 32 32">
<path d="M15.84 1.92c7.323 0 13.28 5.556 13.28 12.384v0 3.669c0 6.323-5.957 11.467-13.28 11.467s-13.28-5.144-13.28-11.467v0-3.669c0-6.828 5.957-12.384 13.28-12.384zM13.873 26.551v1.835c0.483 0.067 0.975 0.109 1.476 0.126v0-1.836c-0.499-0.017-0.992-0.058-1.476-0.125v0zM17.807 26.551c-0.484 0.067-0.976 0.108-1.476 0.125v0 1.836c0.5-0.017 0.993-0.059 1.476-0.126v0zM11.413 25.978v1.835c0.479 0.159 0.97 0.294 1.476 0.401v0-1.837c-0.503-0.107-0.996-0.239-1.476-0.398v0zM20.267 25.978c-0.48 0.159-0.972 0.291-1.476 0.398v0 1.837c0.505-0.107 0.997-0.242 1.476-0.401v0zM8.954 24.89v1.798h-0.034c0.48 0.282 0.985 0.534 1.51 0.756v0-1.835c-0.509-0.212-1.003-0.451-1.476-0.72v0zM22.726 24.89c-0.473 0.268-0.966 0.507-1.476 0.72v0 1.834c0.525-0.222 1.030-0.474 1.51-0.756v0h-0.034zM6.495 23.093v1.725c0.451 0.452 0.943 0.872 1.476 1.254v0-1.8c-0.522-0.36-1.016-0.754-1.476-1.179v0zM25.185 23.093c-0.46 0.426-0.953 0.819-1.476 1.179v0 1.8c0.532-0.382 1.025-0.801 1.476-1.254v0zM15.84 2.873c-6.76 0-12.258 5.127-12.258 11.431s5.499 11.432 12.258 11.432c6.76 0 12.258-5.128 12.258-11.431s-5.499-11.432-12.258-11.432zM15.84 4.778c5.633 0 10.216 4.272 10.216 9.526s-4.583 9.526-10.216 9.526c-5.633 0-10.216-4.273-10.216-9.526s4.583-9.526 10.216-9.526zM3.623 19.156l0.025 0.177c0.239 1.589 0.893 3.066 1.863 4.353v0-1.585c0-0.007 0.004-0.013 0.004-0.020-0.767-0.883-1.407-1.866-1.893-2.925l-0 0zM28.057 19.157c-0.485 1.059-1.126 2.041-1.893 2.924 0.001 0.007 0.004 0.013 0.004 0.020v0 1.585c1.006-1.334 1.672-2.875 1.888-4.53zM15.84 5.731c-5.069 0-9.194 3.846-9.194 8.573s4.124 8.574 9.194 8.574c5.070 0 9.194-3.847 9.194-8.574s-4.124-8.573-9.194-8.573zM15.84 8.303c0.271 0 0.492 0.205 0.492 0.459v0 0.663c1.672 0.066 2.781 0.472 3.459 1.269 0.169 0.198 0.133 0.487-0.080 0.644s-0.522 0.125-0.691-0.074c-0.314-0.369-0.934-0.848-2.689-0.923v0 3.596c3.479 0.739 3.623 2.37 3.578 2.868-0.115 1.249-1.59 2.203-3.578 2.367v0 0.675c0 0.254-0.22 0.459-0.492 0.459s-0.492-0.205-0.492-0.459v0-0.656c-1.705-0.045-2.492-0.345-3.426-1.241-0.189-0.181-0.185-0.472 0.010-0.649s0.506-0.172 0.695 0.009c0.699 0.671 1.215 0.922 2.721 0.963v0-3.543c-2.338-0.232-3.374-1.457-3.355-2.632 0.020-1.225 1.176-2.477 3.355-2.662v0-0.673c0-0.254 0.22-0.459 0.492-0.459zM16.332 14.877v3.369c1.556-0.15 2.536-0.849 2.598-1.52 0.053-0.583-0.614-1.383-2.598-1.849v0zM15.348 10.364c-1.537 0.159-2.358 0.958-2.371 1.747-0.012 0.733 0.729 1.495 2.371 1.688v0z"></path>
</symbol>
<symbol id="icon-ic_music" viewBox="0 0 32 32">
<path d="M24.211 10.756v-3.517c0-0.165-0.081-0.323-0.211-0.419-0.134-0.096-0.307-0.127-0.465-0.077l-10.479 3.329c-0.215 0.069-0.361 0.269-0.361 0.495v10.257c-0.549-0.38-1.252-0.588-1.989-0.588-0.78 0-1.521 0.234-2.085 0.657-0.607 0.457-0.941 1.075-0.941 1.747s0.334 1.29 0.941 1.747c0.564 0.422 1.302 0.657 2.085 0.657s1.521-0.234 2.085-0.657c0.607-0.457 0.941-1.075 0.941-1.747v-8.172l9.443-3.003v6.013c-0.549-0.38-1.252-0.588-1.989-0.588-0.78 0-1.521 0.234-2.085 0.657-0.607 0.457-0.941 1.075-0.941 1.747s0.334 1.29 0.941 1.747c0.564 0.422 1.302 0.657 2.085 0.657s1.521-0.234 2.085-0.657c0.607-0.457 0.941-1.075 0.941-1.747v-8.536c0-0.004 0-0.004 0-0.004zM10.706 24.008c-1.079 0-1.989-0.626-1.989-1.367s0.91-1.367 1.989-1.367c1.079 0 1.989 0.626 1.989 1.367 0 0.745-0.91 1.367-1.989 1.367zM13.732 13.379v-2.435l9.443-2.999v2.435l-9.443 2.999zM21.189 20.664c-1.079 0-1.989-0.626-1.989-1.367s0.91-1.367 1.989-1.367c1.079 0 1.989 0.626 1.989 1.367-0.004 0.741-0.914 1.367-1.989 1.367z"></path>
</symbol>
<symbol id="icon-ic_sound" viewBox="0 0 32 32">
<path d="M14.723 5.44c0.371 0 0.672 0.301 0.672 0.672v0 19.57c0 0.371-0.301 0.672-0.672 0.672s-0.672-0.301-0.672-0.672v0-19.57c0-0.371 0.301-0.672 0.672-0.672zM17.341 7.106c0.371 0 0.672 0.301 0.672 0.672v0 16.237c0 0.371-0.301 0.672-0.672 0.672s-0.672-0.301-0.672-0.672v0-16.237c0-0.371 0.301-0.672 0.672-0.672zM12.105 10.098c0.371 0 0.672 0.301 0.672 0.672v0 10.255c0 0.371-0.301 0.672-0.672 0.672s-0.672-0.301-0.672-0.672v0-10.255c0-0.371 0.301-0.672 0.672-0.672zM19.959 10.439c0.371 0 0.672 0.301 0.672 0.672v0 9.572c0 0.371-0.301 0.672-0.672 0.672s-0.672-0.301-0.672-0.672v0-9.572c0-0.371 0.301-0.672 0.672-0.672zM9.487 12.063c0.371 0 0.672 0.301 0.672 0.672v0 6.324c0 0.371-0.301 0.672-0.672 0.672s-0.672-0.301-0.672-0.672v0-6.324c0-0.371 0.301-0.672 0.672-0.672zM22.578 12.448c0.371 0 0.672 0.301 0.672 0.672v0 5.555c0 0.371-0.301 0.672-0.672 0.672s-0.672-0.301-0.672-0.672v0-5.555c0-0.371 0.301-0.672 0.672-0.672zM6.868 13.174c0.371 0 0.672 0.301 0.672 0.672v0 4.102c0 0.371-0.301 0.672-0.672 0.672s-0.672-0.301-0.672-0.672v0-4.102c0-0.371 0.301-0.672 0.672-0.672zM25.196 13.302c0.371 0 0.672 0.301 0.672 0.672v0 3.846c0 0.371-0.301 0.672-0.672 0.672s-0.672-0.301-0.672-0.672v0-3.846c0-0.371 0.301-0.672 0.672-0.672zM1.632 14.114c0.371 0 0.672 0.301 0.672 0.672v0 2.222c0 0.371-0.301 0.672-0.672 0.672s-0.672-0.301-0.672-0.672v0-2.222c0-0.371 0.301-0.672 0.672-0.672zM4.25 14.114c0.371 0 0.672 0.301 0.672 0.672v0 2.222c0 0.371-0.301 0.672-0.672 0.672s-0.672-0.301-0.672-0.672v0-2.222c0-0.371 0.301-0.672 0.672-0.672zM27.814 14.114c0.371 0 0.672 0.301 0.672 0.672v0 2.222c0 0.371-0.301 0.672-0.672 0.672s-0.672-0.301-0.672-0.672v0-2.222c0-0.371 0.301-0.672 0.672-0.672zM30.432 14.114c0.371 0 0.672 0.301 0.672 0.672v0 2.222c0 0.371-0.301 0.672-0.672 0.672s-0.672-0.301-0.672-0.672v0-2.222c0-0.371 0.301-0.672 0.672-0.672z"></path>
</symbol>
<symbol id="icon-ic_twitter" viewBox="0 0 32 32">
<path d="M16 1.6c7.953 0 14.4 6.447 14.4 14.4s-6.447 14.4-14.4 14.4c-7.953 0-14.4-6.447-14.4-14.4s6.447-14.4 14.4-14.4zM17.533 10.376c-1.259 0.458-2.055 1.637-1.964 2.929l0.030 0.498-0.504-0.061c-1.833-0.234-3.435-1.027-4.794-2.359l-0.665-0.661-0.171 0.488c-0.363 1.088-0.131 2.237 0.624 3.010 0.403 0.427 0.312 0.488-0.383 0.234-0.242-0.081-0.453-0.142-0.473-0.112-0.070 0.071 0.171 0.997 0.363 1.363 0.262 0.508 0.796 1.007 1.38 1.302l0.494 0.234-0.584 0.010c-0.564 0-0.584 0.010-0.524 0.224 0.201 0.661 0.997 1.363 1.884 1.668l0.624 0.214-0.544 0.325c-0.806 0.468-1.753 0.732-2.699 0.753-0.453 0.010-0.826 0.051-0.826 0.081 0 0.102 1.229 0.671 1.944 0.895 2.145 0.661 4.694 0.376 6.608-0.753 1.36-0.803 2.72-2.4 3.354-3.945 0.342-0.824 0.685-2.329 0.685-3.051 0-0.468 0.030-0.529 0.594-1.088 0.332-0.325 0.645-0.681 0.705-0.783 0.101-0.193 0.091-0.193-0.423-0.020-0.856 0.305-0.977 0.264-0.554-0.193 0.312-0.325 0.685-0.915 0.685-1.088 0-0.030-0.151 0.020-0.322 0.112-0.181 0.102-0.584 0.254-0.886 0.346l-0.544 0.173-0.494-0.336c-0.272-0.183-0.655-0.386-0.856-0.447-0.514-0.142-1.299-0.122-1.763 0.041z"></path>
</symbol>
<symbol id="icon-ic_video" viewBox="0 0 32 32">
<path d="M22.556 3.84c1.184 0 2.241 0.793 2.57 1.928v0l0.823 2.842c0.035 0.122 0.021 0.254-0.041 0.365s-0.165 0.194-0.287 0.229v0l-15.73 4.557h16.376c0.265 0 0.48 0.215 0.48 0.48v0 11.504c0 1.473-1.198 2.671-2.671 2.671v0h-5.768c-0.265 0-0.48-0.215-0.48-0.48s0.215-0.48 0.48-0.48v0h5.768c0.944 0 1.711-0.768 1.711-1.711v0-6.532h-18.798v6.532c0 0.944 0.768 1.711 1.711 1.711v0h5.768c0.265 0 0.48 0.215 0.48 0.48s-0.215 0.48-0.48 0.48v0h-5.768c-1.473 0-2.671-1.198-2.671-2.671v0-11.436l-0.804-2.776c-0.198-0.683-0.117-1.404 0.228-2.031s0.911-1.081 1.594-1.278v0l14.768-4.278c0.241-0.070 0.49-0.105 0.739-0.105zM16.389 27.456c0.265 0 0.48 0.216 0.48 0.48s-0.215 0.48-0.48 0.48c-0.264 0-0.48-0.216-0.48-0.48s0.216-0.48 0.48-0.48zM14.771 20.435c0.149-0.086 0.332-0.086 0.48 0v0l4.217 2.435c0.148 0.086 0.24 0.244 0.24 0.416s-0.091 0.33-0.24 0.416v0l-4.217 2.434c-0.074 0.043-0.157 0.064-0.24 0.064s-0.166-0.022-0.24-0.064c-0.149-0.086-0.24-0.244-0.24-0.416v0-4.869c0-0.172 0.091-0.33 0.24-0.416zM15.491 21.682v3.207l2.777-1.603-2.777-1.603zM22.496 14.72h-2.653l-2.039 3.532h2.653l2.039-3.532zM18.735 14.72h-2.653l-2.039 3.532h2.653l2.039-3.532zM14.974 14.72h-2.653l-2.039 3.532h2.653l2.039-3.532zM11.213 14.72h-4.223v3.532h2.183l2.039-3.532zM25.788 14.72h-2.183l-2.039 3.532h4.223v-3.532zM7.598 9.064l-0.282 0.082c-0.437 0.127-0.799 0.418-1.021 0.819s-0.274 0.864-0.147 1.3v0l0.69 2.38 4.238-1.228-3.415-3.28c-0.024-0.023-0.045-0.048-0.063-0.074v0zM11.21 8.017l-2.559 0.741 3.415 3.28c0.024 0.023 0.045 0.048 0.063 0.074v0l2.559-0.741-3.415-3.28c-0.024-0.023-0.045-0.048-0.063-0.074v0zM14.823 6.971l-2.559 0.741 3.415 3.28c0.024 0.023 0.045 0.048 0.063 0.074v0l2.559-0.741-3.415-3.28c-0.024-0.023-0.045-0.048-0.063-0.074v0zM18.436 5.924l-2.559 0.741 3.415 3.28c0.024 0.023 0.045 0.048 0.063 0.074v0l2.559-0.741-3.415-3.28c-0.024-0.023-0.045-0.048-0.063-0.074v0zM22.556 4.8c-0.159 0-0.318 0.023-0.472 0.067v0l-2.594 0.752 3.415 3.28c0.024 0.023 0.045 0.048 0.063 0.074v0l1.926-0.558-0.69-2.38c-0.211-0.727-0.888-1.235-1.648-1.235z"></path>
</symbol>
<symbol id="icon-menu" viewBox="0 0 32 32">
<path d="M24.96 22.4c0.707 0 1.28 0.573 1.28 1.28s-0.573 1.28-1.28 1.28h-20.48c-0.707 0-1.28-0.573-1.28-1.28s0.573-1.28 1.28-1.28h20.48zM18.56 14.72c0.707 0 1.28 0.573 1.28 1.28s-0.573 1.28-1.28 1.28h-14.080c-0.707 0-1.28-0.573-1.28-1.28s0.573-1.28 1.28-1.28h14.080zM27.52 7.040c0.707 0 1.28 0.573 1.28 1.28s-0.573 1.28-1.28 1.28h-23.040c-0.707 0-1.28-0.573-1.28-1.28s0.573-1.28 1.28-1.28h23.040z"></path>
</symbol>
<symbol id="icon-search_1" viewBox="0 0 32 32">
<path d="M23.68 21.304c-0.085-0.104-0.132-0.225-0.141-0.363s0.021-0.268 0.090-0.389c1.178-1.85 1.766-3.882 1.766-6.095 0-2.040-0.503-3.934-1.51-5.68-0.99-1.695-2.321-3.043-3.994-4.046-1.707-1.020-3.567-1.53-5.581-1.53s-3.883 0.51-5.606 1.53c-1.673 1.003-3.004 2.352-3.994 4.046-1.007 1.746-1.51 3.64-1.51 5.68s0.503 3.934 1.51 5.68c0.99 1.695 2.321 3.043 3.994 4.046 1.724 1.020 3.593 1.53 5.606 1.53 1.161 0 2.295-0.182 3.405-0.545 0.896-0.303 1.739-0.707 2.528-1.214l0.467-0.316c0.102-0.086 0.226-0.125 0.371-0.117 0.109 0.006 0.201 0.040 0.276 0.1l4.137 4.188 0.413 0.368 0.461 0.493c0.085 0.086 0.196 0.13 0.333 0.13s0.247-0.043 0.333-0.13l1.638-1.66c0.085-0.086 0.128-0.199 0.128-0.337s-0.043-0.251-0.128-0.337l-4.992-5.032zM20.955 19.4c-0.358 0.477-0.767 0.911-1.228 1.303-0.75 0.647-1.595 1.145-2.532 1.494s-1.919 0.524-2.942 0.524c-1.535 0-2.959-0.383-4.272-1.149-1.296-0.749-2.319-1.771-3.070-3.065-0.767-1.311-1.151-2.733-1.151-4.266s0.384-2.954 1.151-4.266c0.75-1.294 1.774-2.316 3.070-3.065 1.313-0.766 2.737-1.149 4.272-1.149s2.959 0.383 4.272 1.149c1.279 0.749 2.294 1.771 3.044 3.065 0.767 1.311 1.151 2.733 1.151 4.266 0 0.954-0.153 1.869-0.46 2.746s-0.742 1.682-1.305 2.414z"></path>
</symbol>
<symbol id="icon-search_2" viewBox="0 0 32 32">
<path d="M27.981 28.8c0.222 0 0.414-0.081 0.576-0.243s0.243-0.354 0.243-0.576c0-0.222-0.077-0.41-0.23-0.563l-6.63-6.502c0.887-0.973 1.579-2.057 2.074-3.251 0.495-1.229 0.742-2.517 0.742-3.866 0-1.929-0.495-3.712-1.485-5.35-0.939-1.604-2.227-2.876-3.866-3.814-1.673-0.956-3.486-1.434-5.44-1.434s-3.767 0.478-5.44 1.434c-1.621 0.939-2.91 2.21-3.866 3.814-0.973 1.638-1.459 3.422-1.459 5.35s0.486 3.712 1.459 5.35c0.956 1.604 2.244 2.876 3.866 3.814 1.673 0.956 3.49 1.434 5.453 1.434 1.246 0 2.466-0.213 3.661-0.64 1.126-0.393 2.167-0.964 3.123-1.715l6.63 6.528c0.171 0.154 0.367 0.23 0.589 0.23zM13.978 22.758c-1.655 0-3.191-0.41-4.608-1.229-1.365-0.785-2.449-1.852-3.251-3.2-0.836-1.399-1.254-2.91-1.254-4.531s0.418-3.132 1.254-4.531c0.802-1.348 1.886-2.415 3.251-3.2 1.417-0.819 2.948-1.229 4.595-1.229s3.179 0.41 4.595 1.229c1.382 0.785 2.475 1.852 3.277 3.2 0.836 1.399 1.254 2.91 1.254 4.531s-0.418 3.132-1.254 4.531c-0.802 1.348-1.894 2.415-3.277 3.2-1.417 0.819-2.944 1.229-4.582 1.229z"></path>
</symbol>
<symbol id="icon-star" viewBox="0 0 32 32">
<path d="M16 25.059l-8.9 4.701 1.7-9.957-7.2-7.051 9.95-1.453 4.45-9.059 4.45 9.059 9.95 1.453-7.2 7.051 1.7 9.957z"></path>
</symbol>
</defs>
</svg>
