<!-- Generated by IcoMoon.io -->
<svg version="1.1" xmlns="http://www.w3.org/2000/svg" width="32" height="32" viewBox="0 0 32 32">
<path d="M15.984 1.6c2.611 0 5.036 0.658 7.274 1.973 2.172 1.271 3.895 2.992 5.168 5.162 1.317 2.236 1.975 4.658 1.975 7.266s-0.658 5.030-1.975 7.266c-1.273 2.17-2.995 3.89-5.168 5.162-2.238 1.315-4.663 1.973-7.274 1.973s-5.036-0.658-7.274-1.973c-2.172-1.271-3.884-2.992-5.135-5.162-1.317-2.236-1.975-4.658-1.975-7.266s0.658-5.030 1.975-7.266c1.251-2.17 2.962-3.89 5.135-5.162 2.238-1.315 4.663-1.973 7.274-1.973zM22.018 8.504c-0.091 0-0.165 0.037-0.219 0.11v0l-8.311 8.822c-0.073 0.055-0.151 0.082-0.233 0.082s-0.151-0.027-0.206-0.082v0l-2.962-2.959c-0.073-0.055-0.151-0.082-0.233-0.082s-0.151 0.027-0.206 0.082v0l-1.81 1.781c-0.055 0.073-0.082 0.151-0.082 0.233s0.027 0.16 0.082 0.233v0l5.355 5.321c0.045 0.032 0.098 0.049 0.158 0.049 0.091 0 0.165-0.037 0.219-0.11v0l10.56-11.178c0.055-0.073 0.082-0.151 0.082-0.233s-0.037-0.151-0.11-0.205v0l-1.865-1.781c-0.055-0.055-0.128-0.082-0.219-0.082z"></path>
</svg>
