<!-- Generated by IcoMoon.io -->
<svg version="1.1" xmlns="http://www.w3.org/2000/svg" width="32" height="32" viewBox="0 0 32 32">
<path d="M15.84 1.92c1.926 0 3.595 1.378 3.991 3.247l4.289 1.009c0.124 0.029 0.231 0.106 0.299 0.216s0.089 0.24 0.059 0.364v0l-0.335 1.438 0.817 0c0.153 0 0.296 0.073 0.386 0.196l0.025 0.038 1.449 2.429c0.034 0.062 0.055 0.133 0.059 0.208v0l0.96 18.826c0.007 0.132-0.041 0.261-0.131 0.357s-0.217 0.15-0.348 0.15v0h-23.040c-0.132 0-0.257-0.054-0.348-0.15s-0.138-0.225-0.131-0.357v0l0.96-18.826c0-0.005 0.001-0.010 0.001-0.015 0-0.007 0.001-0.015 0.002-0.023 0.001-0.011 0.003-0.021 0.005-0.031 0.001-0.006 0.002-0.011 0.003-0.017 0.007-0.031 0.017-0.061 0.030-0.089 0.007-0.017 0.016-0.034 0.026-0.050l-0.018 0.033c0.004-0.008 0.008-0.017 0.013-0.025l0.005-0.009 1.44-2.414c0.087-0.146 0.243-0.234 0.412-0.234v0l0.344-0-0.389-3.314c-0.029-0.249 0.136-0.476 0.375-0.528l0.046-0.008 5.393-0.641c0.014-0.034 0.033-0.067 0.055-0.098 0.766-1.055 1.999-1.685 3.296-1.685zM25.944 11.574h-20.208l-0.911 17.86h22.029l-0.911-17.86zM19.44 12.54c0.794 0 1.44 0.65 1.44 1.448 0 0.629-0.401 1.166-0.96 1.365l0 1.772c0 2.262-1.83 4.103-4.080 4.103s-4.080-1.841-4.080-4.103v0l-0-1.772c-0.559-0.199-0.96-0.736-0.96-1.365 0-0.799 0.646-1.448 1.44-1.448s1.44 0.65 1.44 1.448c0 0.629-0.401 1.166-0.96 1.365l-0 1.772c0 1.73 1.4 3.138 3.12 3.138s3.12-1.408 3.12-3.138v0l-0-1.772c-0.559-0.199-0.96-0.736-0.96-1.365 0-0.799 0.646-1.448 1.44-1.448zM12.24 13.505c-0.265 0-0.48 0.216-0.48 0.483 0 0.088 0.024 0.17 0.065 0.242 0.083-0.144 0.238-0.242 0.415-0.242s0.333 0.097 0.416 0.241c0.041-0.071 0.064-0.153 0.064-0.241 0-0.266-0.215-0.483-0.48-0.483zM19.44 13.505c-0.265 0-0.48 0.216-0.48 0.483 0 0.075 0.017 0.146 0.047 0.209 0.086-0.127 0.231-0.21 0.395-0.21v0h0.037c0.177 0 0.332 0.097 0.415 0.241 0.041-0.071 0.064-0.153 0.064-0.241 0-0.266-0.215-0.483-0.48-0.483zM7.178 9.16l-0.186 0-0.864 1.448 1.22-0-0.17-1.448zM24.688 9.16l-0.769-0-0.337 1.448 1.97 0-0.864-1.448zM14.759 4.406l-7.075 0.841 0.63 5.362h2.336l-0.38-1.588c-0.058-0.244 0.079-0.489 0.31-0.569l0.044-0.013 4.48-1.084-0.347-2.948zM18.116 7.619l-6.799 1.644 0.322 1.345h7.192l-0.714-2.989zM17.826 5.687l-0.249 1.069 0.781-0.189c0.109-0.026 0.222-0.013 0.321 0.035l0.042 0.023c0.108 0.067 0.186 0.175 0.216 0.299v0l0.881 3.685h2.778l0.838-3.602-5.608-1.319zM15.84 2.885c-0.689 0-1.354 0.232-1.892 0.644l1.176-0.14c0.127-0.015 0.253 0.021 0.354 0.1s0.165 0.195 0.18 0.322v0l0.389 3.314 0.486-0.118 0.468-2.011c0.025-0.109 0.087-0.205 0.175-0.273l0.039-0.027c0.108-0.067 0.239-0.089 0.363-0.060v0l1.182 0.278c-0.45-1.194-1.607-2.030-2.919-2.030z"></path>
</svg>
