<!-- Generated by IcoMoon.io -->
<svg version="1.1" xmlns="http://www.w3.org/2000/svg" width="32" height="32" viewBox="0 0 32 32">
<path d="M7.813 3.84c0.716 0 1.332 0.488 1.497 1.187v0l1.168 4.973h18.45c0.158 0 0.307 0.073 0.404 0.197s0.132 0.287 0.093 0.44v0l-1.856 7.435c-0.172 0.687-0.785 1.167-1.492 1.167v0h-13.429l0.482 2.053h12.415c0.848 0 1.538 0.691 1.538 1.54s-0.69 1.54-1.538 1.54v0c0.321 0.429 0.512 0.963 0.512 1.54 0 1.415-1.15 2.567-2.563 2.567s-2.563-1.151-2.563-2.567c0-0.577 0.191-1.111 0.514-1.54v0h-4.41c0.323 0.429 0.514 0.963 0.514 1.54 0 1.415-1.15 2.567-2.563 2.567s-2.563-1.151-2.563-2.567c0-0.577 0.191-1.111 0.514-1.54v0h-1.026c-0.716 0-1.332-0.488-1.497-1.187v0l-3.821-16.266h-1.857c-0.848 0-1.538-0.691-1.538-1.54s0.69-1.54 1.538-1.54v0zM14.987 24.373c-0.848 0-1.537 0.691-1.537 1.54s0.69 1.54 1.537 1.54c0.848 0 1.537-0.691 1.537-1.54s-0.69-1.54-1.537-1.54zM23.495 24.373c-0.848 0-1.538 0.691-1.538 1.54s0.69 1.54 1.538 1.54c0.848 0 1.538-0.691 1.538-1.54s-0.69-1.54-1.538-1.54zM23.495 25.4c0.283 0 0.512 0.23 0.512 0.513s-0.23 0.513-0.512 0.513c-0.283 0-0.512-0.23-0.512-0.513s0.23-0.513 0.512-0.513zM14.987 25.4c0.283 0 0.512 0.23 0.512 0.513s-0.23 0.513-0.512 0.513c-0.283 0-0.512-0.23-0.512-0.513s0.23-0.513 0.512-0.513zM7.813 4.867h-3.075c-0.283 0-0.513 0.23-0.513 0.513s0.23 0.513 0.513 0.513v0h2.669l4.007 17.058c0.055 0.233 0.26 0.396 0.499 0.396v0h13.632c0.283 0 0.512-0.23 0.512-0.513s-0.23-0.513-0.512-0.513v0h-13.226l-4.007-17.058c-0.055-0.233-0.26-0.396-0.499-0.396v0zM18.882 11.027h-3.673l0.384 3.080h1.751c0.283 0 0.512 0.23 0.512 0.513s-0.229 0.513-0.512 0.513v0h-1.623l0.384 3.080h2.776v-1.54c0-0.284 0.229-0.513 0.512-0.513s0.512 0.23 0.512 0.513v0 1.54h2.776l0.384-3.080h-1.623c-0.283 0-0.512-0.23-0.512-0.513s0.229-0.513 0.512-0.513v0h1.751l0.384-3.080h-3.673v1.54c0 0.284-0.229 0.513-0.512 0.513s-0.512-0.23-0.512-0.513v0-1.54zM14.689 15.133h-3.006l0.723 3.080h2.667l-0.384-3.080zM27.246 15.133h-3.145l-0.384 3.080h2.36c0.236 0 0.44-0.16 0.498-0.389v0l0.672-2.691zM19.395 14.107c0.283 0 0.512 0.23 0.512 0.513s-0.23 0.513-0.512 0.513c-0.283 0-0.512-0.23-0.512-0.513s0.23-0.513 0.512-0.513zM28.271 11.027h-3.657l-0.384 3.080h3.273l0.769-3.080zM14.176 11.027h-3.458l0.723 3.080h3.119l-0.384-3.080z"></path>
</svg>
