<!-- Generated by IcoMoon.io -->
<svg version="1.1" xmlns="http://www.w3.org/2000/svg" width="32" height="32" viewBox="0 0 32 32">
<path d="M18.817 6.080c1.842 0.012 3.572 0.709 4.87 1.962 1.303 1.258 2.031 2.94 2.050 4.737 0.025 2.328-1.161 4.477-3.172 5.748-0.813 0.514-1.229 1.448-1.035 2.325 0.070 0.318 0.1 0.645 0.090 0.972-0.032 1.007-0.448 1.962-1.174 2.69-0.722 0.723-1.685 1.156-2.711 1.219-0.087 0.005-0.174 0.008-0.26 0.008-1.103 0-2.165-0.427-2.947-1.192-0.849-0.831-1.201-2.056-1.018-3.543 0.34-2.755 0.028-4.775-1.078-6.971-0.524-1.041-0.645-2.109-0.35-3.089 0.417-1.386 1.303-2.63 2.496-3.504 1.229-0.901 2.694-1.372 4.24-1.362zM18.81 7.232c-1.295-0.006-2.523 0.386-3.551 1.139-0.992 0.727-1.728 1.759-2.074 2.907-0.263 0.875 0.005 1.701 0.276 2.239 1.51 3 1.45 5.541 1.192 7.63-0.14 1.133 0.089 2 0.68 2.578 0.612 0.598 1.461 0.91 2.332 0.858 0.745-0.045 1.443-0.359 1.966-0.883 0.518-0.519 0.816-1.198 0.838-1.912 0.007-0.232-0.014-0.464-0.063-0.688-0.149-0.676-0.076-1.372 0.21-2.015 0.279-0.626 0.741-1.156 1.335-1.532 1.671-1.056 2.656-2.836 2.636-4.762-0.016-1.485-0.619-2.878-1.699-3.92-1.084-1.047-2.532-1.629-4.077-1.639zM9.642 14.073c0.221-0.228 0.586-0.234 0.814-0.013 1.114 1.079 1.728 2.518 1.728 4.051s-0.614 2.971-1.727 4.051c-0.112 0.108-0.257 0.162-0.401 0.162-0.15 0-0.301-0.059-0.414-0.175-0.221-0.228-0.216-0.593 0.013-0.814 0.888-0.861 1.377-2.005 1.377-3.224s-0.489-2.363-1.377-3.223c-0.228-0.221-0.234-0.586-0.013-0.815zM7.958 15.705c0.221-0.228 0.586-0.234 0.815-0.013 0.666 0.645 1.033 1.505 1.033 2.42s-0.367 1.774-1.033 2.42c-0.112 0.108-0.257 0.162-0.401 0.162-0.151 0-0.301-0.059-0.414-0.175-0.221-0.228-0.216-0.593 0.013-0.814 0.44-0.426 0.682-0.992 0.682-1.592s-0.242-1.166-0.682-1.592c-0.228-0.221-0.234-0.586-0.013-0.815zM6.25 16.896c0.226-0.224 0.59-0.223 0.815 0.003 0.628 0.632 0.628 1.659 0 2.291-0.112 0.113-0.261 0.17-0.409 0.17-0.147 0-0.294-0.056-0.406-0.167-0.226-0.224-0.227-0.589-0.003-0.814 0.183-0.184 0.183-0.483 0-0.667-0.224-0.226-0.223-0.59 0.003-0.814zM18.77 8.808c2.29 0 4.153 1.813 4.153 4.042 0 0.318-0.258 0.576-0.576 0.576s-0.576-0.258-0.576-0.576c0-1.593-1.346-2.89-3-2.89-1.424 0-2.619 0.96-2.925 2.243 0.368 0.014 0.733 0.106 1.061 0.273 0.861 0.44 1.399 1.371 1.338 2.316-0.060 0.93-0.7 1.782-1.591 2.12-0.067 0.025-0.136 0.038-0.204 0.038-0.233 0-0.451-0.142-0.539-0.372-0.113-0.297 0.037-0.63 0.335-0.743 0.477-0.181 0.818-0.63 0.85-1.117 0.032-0.493-0.254-0.981-0.712-1.215-0.307-0.157-0.691-0.192-1.026-0.093-0.174 0.051-0.362 0.017-0.508-0.091s-0.231-0.28-0.231-0.461v0-0.007c0-2.229 1.863-4.042 4.152-4.042z"></path>
</svg>
