<!-- Generated by IcoMoon.io -->
<svg version="1.1" xmlns="http://www.w3.org/2000/svg" width="32" height="32" viewBox="0 0 32 32">
<path d="M16 1.6c7.953 0 14.4 6.447 14.4 14.4s-6.447 14.4-14.4 14.4c-7.953 0-14.4-6.447-14.4-14.4s6.447-14.4 14.4-14.4zM16.594 8.32h-1.188c-1.551 0.002-1.838 0.013-2.572 0.046-0.818 0.037-1.376 0.167-1.864 0.357-0.505 0.196-0.934 0.459-1.361 0.886s-0.69 0.855-0.886 1.36c-0.19 0.489-0.32 1.047-0.357 1.864-0.034 0.751-0.044 1.034-0.046 2.682v0.97c0.002 1.648 0.012 1.93 0.046 2.681 0.038 0.818 0.167 1.376 0.357 1.864 0.196 0.505 0.459 0.934 0.886 1.36s0.855 0.69 1.36 0.886c0.489 0.19 1.047 0.319 1.864 0.357 0.768 0.035 1.046 0.045 2.796 0.046h0.741c1.75-0.001 2.028-0.011 2.796-0.046 0.818-0.037 1.376-0.167 1.865-0.357 0.505-0.196 0.933-0.459 1.36-0.886s0.69-0.855 0.886-1.36c0.189-0.488 0.318-1.047 0.357-1.864 0.037-0.819 0.046-1.080 0.046-3.166s-0.010-2.348-0.046-3.167c-0.038-0.818-0.168-1.376-0.357-1.864-0.197-0.505-0.459-0.934-0.886-1.361s-0.854-0.69-1.36-0.886c-0.49-0.19-1.048-0.319-1.866-0.357-0.734-0.033-1.020-0.044-2.571-0.046zM15.312 9.702v0.002c0.204-0 0.433 0 0.689 0l0.596 0c1.513 0.002 1.784 0.011 2.507 0.044 0.749 0.034 1.155 0.159 1.426 0.264 0.358 0.139 0.614 0.306 0.883 0.574s0.435 0.525 0.575 0.883c0.105 0.27 0.23 0.677 0.264 1.426 0.034 0.74 0.043 1.007 0.045 2.609l-0 1.089c-0.002 1.512-0.012 1.783-0.044 2.507-0.034 0.749-0.159 1.155-0.264 1.426-0.139 0.358-0.306 0.614-0.575 0.882s-0.524 0.435-0.883 0.574c-0.27 0.106-0.677 0.23-1.426 0.265-0.741 0.034-1.007 0.043-2.618 0.045h-0.972c-1.61-0.001-1.877-0.011-2.618-0.045-0.749-0.035-1.155-0.16-1.426-0.265-0.358-0.139-0.614-0.306-0.883-0.574s-0.435-0.524-0.575-0.883c-0.105-0.27-0.23-0.677-0.264-1.426-0.031-0.689-0.041-0.968-0.044-2.3v-1.608c0.002-1.332 0.012-1.61 0.044-2.299 0.034-0.749 0.159-1.155 0.264-1.426 0.139-0.358 0.306-0.614 0.575-0.883s0.525-0.435 0.883-0.575c0.271-0.106 0.677-0.23 1.426-0.265 0.709-0.032 0.983-0.042 2.414-0.043zM16.001 12.056c-2.178 0-3.944 1.766-3.944 3.944s1.766 3.943 3.944 3.943c2.178 0 3.943-1.765 3.943-3.943 0-2.146-1.713-3.891-3.846-3.943l-0.097-0.001zM16.001 13.44c1.414 0 2.56 1.146 2.56 2.56s-1.146 2.56-2.56 2.56c-1.414 0-2.56-1.146-2.56-2.56s1.146-2.56 2.56-2.56zM20.1 10.979v0c-0.509 0-0.922 0.412-0.922 0.921s0.413 0.922 0.922 0.922 0.922-0.413 0.922-0.922c0-0.509-0.413-0.922-0.922-0.922z"></path>
</svg>
