<!-- Generated by IcoMoon.io -->
<svg version="1.1" xmlns="http://www.w3.org/2000/svg" width="32" height="32" viewBox="0 0 32 32">
<path d="M28.284 3.84c0.49 0 0.889 0.397 0.889 0.885v0 15.872l2.457 4.824c0.001 0.002 0.002 0.005 0.003 0.007 0.006 0.013 0.012 0.027 0.017 0.040v0l0.004 0.012c0.005 0.015 0.010 0.031 0.013 0.047v0l0.001 0.005c0.004 0.017 0.006 0.035 0.008 0.053v0l0.001 0.014c0.001 0.009 0.001 0.019 0.001 0.028v0 1.16c0 0.58-0.474 1.051-1.056 1.051v0h-29.248c-0.582 0-1.056-0.472-1.056-1.051v0-1.16c0-0.010 0.001-0.019 0.001-0.029v0l0.001-0.014c0.002-0.018 0.004-0.036 0.008-0.053 0-0.002 0.001-0.003 0.001-0.005 0.004-0.016 0.008-0.032 0.013-0.047v0l0.004-0.012c0.005-0.014 0.011-0.027 0.017-0.040v0l0.003-0.007 2.457-4.824v-15.872c0-0.488 0.399-0.885 0.889-0.885v0zM30.761 26.086h-29.523v0.703c0 0.075 0.062 0.137 0.137 0.137v0h29.248c0.076 0 0.137-0.061 0.137-0.137v0-0.703zM28.432 21.164h-24.864l-2.041 4.007h10.093l0.507-1.829c0.103-0.372 0.446-0.632 0.834-0.632v0h6.079c0.388 0 0.731 0.26 0.834 0.632v0l0.507 1.829h10.093l-2.041-4.007zM18.998 23.625h-5.997l-0.428 1.546h6.854l-0.428-1.546zM28.255 4.755h-24.509v15.495h24.509v-15.495zM26.815 13.264c0.254 0 0.459 0.205 0.459 0.457v0 4.835c0 0.395-0.323 0.717-0.72 0.717v0h-21.109c-0.397 0-0.72-0.322-0.72-0.717v0-4.835c0-0.253 0.206-0.457 0.459-0.457s0.459 0.205 0.459 0.457v0 4.638h20.712v-4.638c0-0.253 0.206-0.457 0.459-0.457zM26.554 5.73c0.397 0 0.72 0.322 0.72 0.717v0 4.835c0 0.253-0.206 0.457-0.459 0.457s-0.459-0.205-0.459-0.457v0-4.638h-20.712v4.638c0 0.253-0.206 0.457-0.459 0.457s-0.459-0.205-0.459-0.457v0-4.835c0-0.396 0.323-0.717 0.72-0.717v0z"></path>
</svg>
