<!-- Generated by IcoMoon.io -->
<svg version="1.1" xmlns="http://www.w3.org/2000/svg" width="32" height="32" viewBox="0 0 32 32">
<path d="M15.84 1.92c7.323 0 13.28 5.556 13.28 12.384v0 3.669c0 6.323-5.957 11.467-13.28 11.467s-13.28-5.144-13.28-11.467v0-3.669c0-6.828 5.957-12.384 13.28-12.384zM13.873 26.551v1.835c0.483 0.067 0.975 0.109 1.476 0.126v0-1.836c-0.499-0.017-0.992-0.058-1.476-0.125v0zM17.807 26.551c-0.484 0.067-0.976 0.108-1.476 0.125v0 1.836c0.5-0.017 0.993-0.059 1.476-0.126v0zM11.413 25.978v1.835c0.479 0.159 0.97 0.294 1.476 0.401v0-1.837c-0.503-0.107-0.996-0.239-1.476-0.398v0zM20.267 25.978c-0.48 0.159-0.972 0.291-1.476 0.398v0 1.837c0.505-0.107 0.997-0.242 1.476-0.401v0zM8.954 24.89v1.798h-0.034c0.48 0.282 0.985 0.534 1.51 0.756v0-1.835c-0.509-0.212-1.003-0.451-1.476-0.72v0zM22.726 24.89c-0.473 0.268-0.966 0.507-1.476 0.72v0 1.834c0.525-0.222 1.030-0.474 1.51-0.756v0h-0.034zM6.495 23.093v1.725c0.451 0.452 0.943 0.872 1.476 1.254v0-1.8c-0.522-0.36-1.016-0.754-1.476-1.179v0zM25.185 23.093c-0.46 0.426-0.953 0.819-1.476 1.179v0 1.8c0.532-0.382 1.025-0.801 1.476-1.254v0zM15.84 2.873c-6.76 0-12.258 5.127-12.258 11.431s5.499 11.432 12.258 11.432c6.76 0 12.258-5.128 12.258-11.431s-5.499-11.432-12.258-11.432zM15.84 4.778c5.633 0 10.216 4.272 10.216 9.526s-4.583 9.526-10.216 9.526c-5.633 0-10.216-4.273-10.216-9.526s4.583-9.526 10.216-9.526zM3.623 19.156l0.025 0.177c0.239 1.589 0.893 3.066 1.863 4.353v0-1.585c0-0.007 0.004-0.013 0.004-0.020-0.767-0.883-1.407-1.866-1.893-2.925l-0 0zM28.057 19.157c-0.485 1.059-1.126 2.041-1.893 2.924 0.001 0.007 0.004 0.013 0.004 0.020v0 1.585c1.006-1.334 1.672-2.875 1.888-4.53zM15.84 5.731c-5.069 0-9.194 3.846-9.194 8.573s4.124 8.574 9.194 8.574c5.070 0 9.194-3.847 9.194-8.574s-4.124-8.573-9.194-8.573zM15.84 8.303c0.271 0 0.492 0.205 0.492 0.459v0 0.663c1.672 0.066 2.781 0.472 3.459 1.269 0.169 0.198 0.133 0.487-0.080 0.644s-0.522 0.125-0.691-0.074c-0.314-0.369-0.934-0.848-2.689-0.923v0 3.596c3.479 0.739 3.623 2.37 3.578 2.868-0.115 1.249-1.59 2.203-3.578 2.367v0 0.675c0 0.254-0.22 0.459-0.492 0.459s-0.492-0.205-0.492-0.459v0-0.656c-1.705-0.045-2.492-0.345-3.426-1.241-0.189-0.181-0.185-0.472 0.010-0.649s0.506-0.172 0.695 0.009c0.699 0.671 1.215 0.922 2.721 0.963v0-3.543c-2.338-0.232-3.374-1.457-3.355-2.632 0.020-1.225 1.176-2.477 3.355-2.662v0-0.673c0-0.254 0.22-0.459 0.492-0.459zM16.332 14.877v3.369c1.556-0.15 2.536-0.849 2.598-1.52 0.053-0.583-0.614-1.383-2.598-1.849v0zM15.348 10.364c-1.537 0.159-2.358 0.958-2.371 1.747-0.012 0.733 0.729 1.495 2.371 1.688v0z"></path>
</svg>
