<!-- Generated by IcoMoon.io -->
<svg version="1.1" xmlns="http://www.w3.org/2000/svg" width="32" height="32" viewBox="0 0 32 32">
<path d="M24.211 10.756v-3.517c0-0.165-0.081-0.323-0.211-0.419-0.134-0.096-0.307-0.127-0.465-0.077l-10.479 3.329c-0.215 0.069-0.361 0.269-0.361 0.495v10.257c-0.549-0.38-1.252-0.588-1.989-0.588-0.78 0-1.521 0.234-2.085 0.657-0.607 0.457-0.941 1.075-0.941 1.747s0.334 1.29 0.941 1.747c0.564 0.422 1.302 0.657 2.085 0.657s1.521-0.234 2.085-0.657c0.607-0.457 0.941-1.075 0.941-1.747v-8.172l9.443-3.003v6.013c-0.549-0.38-1.252-0.588-1.989-0.588-0.78 0-1.521 0.234-2.085 0.657-0.607 0.457-0.941 1.075-0.941 1.747s0.334 1.29 0.941 1.747c0.564 0.422 1.302 0.657 2.085 0.657s1.521-0.234 2.085-0.657c0.607-0.457 0.941-1.075 0.941-1.747v-8.536c0-0.004 0-0.004 0-0.004zM10.706 24.008c-1.079 0-1.989-0.626-1.989-1.367s0.91-1.367 1.989-1.367c1.079 0 1.989 0.626 1.989 1.367 0 0.745-0.91 1.367-1.989 1.367zM13.732 13.379v-2.435l9.443-2.999v2.435l-9.443 2.999zM21.189 20.664c-1.079 0-1.989-0.626-1.989-1.367s0.91-1.367 1.989-1.367c1.079 0 1.989 0.626 1.989 1.367-0.004 0.741-0.914 1.367-1.989 1.367z"></path>
</svg>
