<!-- Generated by IcoMoon.io -->
<svg version="1.1" xmlns="http://www.w3.org/2000/svg" width="32" height="32" viewBox="0 0 32 32">
<path d="M14.723 5.44c0.371 0 0.672 0.301 0.672 0.672v0 19.57c0 0.371-0.301 0.672-0.672 0.672s-0.672-0.301-0.672-0.672v0-19.57c0-0.371 0.301-0.672 0.672-0.672zM17.341 7.106c0.371 0 0.672 0.301 0.672 0.672v0 16.237c0 0.371-0.301 0.672-0.672 0.672s-0.672-0.301-0.672-0.672v0-16.237c0-0.371 0.301-0.672 0.672-0.672zM12.105 10.098c0.371 0 0.672 0.301 0.672 0.672v0 10.255c0 0.371-0.301 0.672-0.672 0.672s-0.672-0.301-0.672-0.672v0-10.255c0-0.371 0.301-0.672 0.672-0.672zM19.959 10.439c0.371 0 0.672 0.301 0.672 0.672v0 9.572c0 0.371-0.301 0.672-0.672 0.672s-0.672-0.301-0.672-0.672v0-9.572c0-0.371 0.301-0.672 0.672-0.672zM9.487 12.063c0.371 0 0.672 0.301 0.672 0.672v0 6.324c0 0.371-0.301 0.672-0.672 0.672s-0.672-0.301-0.672-0.672v0-6.324c0-0.371 0.301-0.672 0.672-0.672zM22.578 12.448c0.371 0 0.672 0.301 0.672 0.672v0 5.555c0 0.371-0.301 0.672-0.672 0.672s-0.672-0.301-0.672-0.672v0-5.555c0-0.371 0.301-0.672 0.672-0.672zM6.868 13.174c0.371 0 0.672 0.301 0.672 0.672v0 4.102c0 0.371-0.301 0.672-0.672 0.672s-0.672-0.301-0.672-0.672v0-4.102c0-0.371 0.301-0.672 0.672-0.672zM25.196 13.302c0.371 0 0.672 0.301 0.672 0.672v0 3.846c0 0.371-0.301 0.672-0.672 0.672s-0.672-0.301-0.672-0.672v0-3.846c0-0.371 0.301-0.672 0.672-0.672zM1.632 14.114c0.371 0 0.672 0.301 0.672 0.672v0 2.222c0 0.371-0.301 0.672-0.672 0.672s-0.672-0.301-0.672-0.672v0-2.222c0-0.371 0.301-0.672 0.672-0.672zM4.25 14.114c0.371 0 0.672 0.301 0.672 0.672v0 2.222c0 0.371-0.301 0.672-0.672 0.672s-0.672-0.301-0.672-0.672v0-2.222c0-0.371 0.301-0.672 0.672-0.672zM27.814 14.114c0.371 0 0.672 0.301 0.672 0.672v0 2.222c0 0.371-0.301 0.672-0.672 0.672s-0.672-0.301-0.672-0.672v0-2.222c0-0.371 0.301-0.672 0.672-0.672zM30.432 14.114c0.371 0 0.672 0.301 0.672 0.672v0 2.222c0 0.371-0.301 0.672-0.672 0.672s-0.672-0.301-0.672-0.672v0-2.222c0-0.371 0.301-0.672 0.672-0.672z"></path>
</svg>
