<!-- Generated by IcoMoon.io -->
<svg version="1.1" xmlns="http://www.w3.org/2000/svg" width="32" height="32" viewBox="0 0 32 32">
<path d="M16 1.6c7.953 0 14.4 6.447 14.4 14.4s-6.447 14.4-14.4 14.4c-7.953 0-14.4-6.447-14.4-14.4s6.447-14.4 14.4-14.4zM17.533 10.376c-1.259 0.458-2.055 1.637-1.964 2.929l0.030 0.498-0.504-0.061c-1.833-0.234-3.435-1.027-4.794-2.359l-0.665-0.661-0.171 0.488c-0.363 1.088-0.131 2.237 0.624 3.010 0.403 0.427 0.312 0.488-0.383 0.234-0.242-0.081-0.453-0.142-0.473-0.112-0.070 0.071 0.171 0.997 0.363 1.363 0.262 0.508 0.796 1.007 1.38 1.302l0.494 0.234-0.584 0.010c-0.564 0-0.584 0.010-0.524 0.224 0.201 0.661 0.997 1.363 1.884 1.668l0.624 0.214-0.544 0.325c-0.806 0.468-1.753 0.732-2.699 0.753-0.453 0.010-0.826 0.051-0.826 0.081 0 0.102 1.229 0.671 1.944 0.895 2.145 0.661 4.694 0.376 6.608-0.753 1.36-0.803 2.72-2.4 3.354-3.945 0.342-0.824 0.685-2.329 0.685-3.051 0-0.468 0.030-0.529 0.594-1.088 0.332-0.325 0.645-0.681 0.705-0.783 0.101-0.193 0.091-0.193-0.423-0.020-0.856 0.305-0.977 0.264-0.554-0.193 0.312-0.325 0.685-0.915 0.685-1.088 0-0.030-0.151 0.020-0.322 0.112-0.181 0.102-0.584 0.254-0.886 0.346l-0.544 0.173-0.494-0.336c-0.272-0.183-0.655-0.386-0.856-0.447-0.514-0.142-1.299-0.122-1.763 0.041z"></path>
</svg>
