<!-- Generated by IcoMoon.io -->
<svg version="1.1" xmlns="http://www.w3.org/2000/svg" width="32" height="32" viewBox="0 0 32 32">
<path d="M22.556 3.84c1.184 0 2.241 0.793 2.57 1.928v0l0.823 2.842c0.035 0.122 0.021 0.254-0.041 0.365s-0.165 0.194-0.287 0.229v0l-15.73 4.557h16.376c0.265 0 0.48 0.215 0.48 0.48v0 11.504c0 1.473-1.198 2.671-2.671 2.671v0h-5.768c-0.265 0-0.48-0.215-0.48-0.48s0.215-0.48 0.48-0.48v0h5.768c0.944 0 1.711-0.768 1.711-1.711v0-6.532h-18.798v6.532c0 0.944 0.768 1.711 1.711 1.711v0h5.768c0.265 0 0.48 0.215 0.48 0.48s-0.215 0.48-0.48 0.48v0h-5.768c-1.473 0-2.671-1.198-2.671-2.671v0-11.436l-0.804-2.776c-0.198-0.683-0.117-1.404 0.228-2.031s0.911-1.081 1.594-1.278v0l14.768-4.278c0.241-0.070 0.49-0.105 0.739-0.105zM16.389 27.456c0.265 0 0.48 0.216 0.48 0.48s-0.215 0.48-0.48 0.48c-0.264 0-0.48-0.216-0.48-0.48s0.216-0.48 0.48-0.48zM14.771 20.435c0.149-0.086 0.332-0.086 0.48 0v0l4.217 2.435c0.148 0.086 0.24 0.244 0.24 0.416s-0.091 0.33-0.24 0.416v0l-4.217 2.434c-0.074 0.043-0.157 0.064-0.24 0.064s-0.166-0.022-0.24-0.064c-0.149-0.086-0.24-0.244-0.24-0.416v0-4.869c0-0.172 0.091-0.33 0.24-0.416zM15.491 21.682v3.207l2.777-1.603-2.777-1.603zM22.496 14.72h-2.653l-2.039 3.532h2.653l2.039-3.532zM18.735 14.72h-2.653l-2.039 3.532h2.653l2.039-3.532zM14.974 14.72h-2.653l-2.039 3.532h2.653l2.039-3.532zM11.213 14.72h-4.223v3.532h2.183l2.039-3.532zM25.788 14.72h-2.183l-2.039 3.532h4.223v-3.532zM7.598 9.064l-0.282 0.082c-0.437 0.127-0.799 0.418-1.021 0.819s-0.274 0.864-0.147 1.3v0l0.69 2.38 4.238-1.228-3.415-3.28c-0.024-0.023-0.045-0.048-0.063-0.074v0zM11.21 8.017l-2.559 0.741 3.415 3.28c0.024 0.023 0.045 0.048 0.063 0.074v0l2.559-0.741-3.415-3.28c-0.024-0.023-0.045-0.048-0.063-0.074v0zM14.823 6.971l-2.559 0.741 3.415 3.28c0.024 0.023 0.045 0.048 0.063 0.074v0l2.559-0.741-3.415-3.28c-0.024-0.023-0.045-0.048-0.063-0.074v0zM18.436 5.924l-2.559 0.741 3.415 3.28c0.024 0.023 0.045 0.048 0.063 0.074v0l2.559-0.741-3.415-3.28c-0.024-0.023-0.045-0.048-0.063-0.074v0zM22.556 4.8c-0.159 0-0.318 0.023-0.472 0.067v0l-2.594 0.752 3.415 3.28c0.024 0.023 0.045 0.048 0.063 0.074v0l1.926-0.558-0.69-2.38c-0.211-0.727-0.888-1.235-1.648-1.235z"></path>
</svg>
