<!-- Generated by IcoMoon.io -->
<svg version="1.1" xmlns="http://www.w3.org/2000/svg" width="32" height="32" viewBox="0 0 32 32">
<path d="M27.981 28.8c0.222 0 0.414-0.081 0.576-0.243s0.243-0.354 0.243-0.576c0-0.222-0.077-0.41-0.23-0.563l-6.63-6.502c0.887-0.973 1.579-2.057 2.074-3.251 0.495-1.229 0.742-2.517 0.742-3.866 0-1.929-0.495-3.712-1.485-5.35-0.939-1.604-2.227-2.876-3.866-3.814-1.673-0.956-3.486-1.434-5.44-1.434s-3.767 0.478-5.44 1.434c-1.621 0.939-2.91 2.21-3.866 3.814-0.973 1.638-1.459 3.422-1.459 5.35s0.486 3.712 1.459 5.35c0.956 1.604 2.244 2.876 3.866 3.814 1.673 0.956 3.49 1.434 5.453 1.434 1.246 0 2.466-0.213 3.661-0.64 1.126-0.393 2.167-0.964 3.123-1.715l6.63 6.528c0.171 0.154 0.367 0.23 0.589 0.23zM13.978 22.758c-1.655 0-3.191-0.41-4.608-1.229-1.365-0.785-2.449-1.852-3.251-3.2-0.836-1.399-1.254-2.91-1.254-4.531s0.418-3.132 1.254-4.531c0.802-1.348 1.886-2.415 3.251-3.2 1.417-0.819 2.948-1.229 4.595-1.229s3.179 0.41 4.595 1.229c1.382 0.785 2.475 1.852 3.277 3.2 0.836 1.399 1.254 2.91 1.254 4.531s-0.418 3.132-1.254 4.531c-0.802 1.348-1.894 2.415-3.277 3.2-1.417 0.819-2.944 1.229-4.582 1.229z"></path>
</svg>
