<!-- Generated by IcoMoon.io -->
<svg version="1.1" xmlns="http://www.w3.org/2000/svg" width="32" height="32" viewBox="0 0 32 32">
<path d="M23.68 21.304c-0.085-0.104-0.132-0.225-0.141-0.363s0.021-0.268 0.090-0.389c1.178-1.85 1.766-3.882 1.766-6.095 0-2.040-0.503-3.934-1.51-5.68-0.99-1.695-2.321-3.043-3.994-4.046-1.707-1.020-3.567-1.53-5.581-1.53s-3.883 0.51-5.606 1.53c-1.673 1.003-3.004 2.352-3.994 4.046-1.007 1.746-1.51 3.64-1.51 5.68s0.503 3.934 1.51 5.68c0.99 1.695 2.321 3.043 3.994 4.046 1.724 1.020 3.593 1.53 5.606 1.53 1.161 0 2.295-0.182 3.405-0.545 0.896-0.303 1.739-0.707 2.528-1.214l0.467-0.316c0.102-0.086 0.226-0.125 0.371-0.117 0.109 0.006 0.201 0.040 0.276 0.1l4.137 4.188 0.413 0.368 0.461 0.493c0.085 0.086 0.196 0.13 0.333 0.13s0.247-0.043 0.333-0.13l1.638-1.66c0.085-0.086 0.128-0.199 0.128-0.337s-0.043-0.251-0.128-0.337l-4.992-5.032zM20.955 19.4c-0.358 0.477-0.767 0.911-1.228 1.303-0.75 0.647-1.595 1.145-2.532 1.494s-1.919 0.524-2.942 0.524c-1.535 0-2.959-0.383-4.272-1.149-1.296-0.749-2.319-1.771-3.070-3.065-0.767-1.311-1.151-2.733-1.151-4.266s0.384-2.954 1.151-4.266c0.75-1.294 1.774-2.316 3.070-3.065 1.313-0.766 2.737-1.149 4.272-1.149s2.959 0.383 4.272 1.149c1.279 0.749 2.294 1.771 3.044 3.065 0.767 1.311 1.151 2.733 1.151 4.266 0 0.954-0.153 1.869-0.46 2.746s-0.742 1.682-1.305 2.414z"></path>
</svg>
